<?xml version="1.0" encoding="utf-8"?>
<svg viewBox="-0.291 4.966 225.333 207.329" xmlns="http://www.w3.org/2000/svg">
  <g transform="matrix(1.333333, 0, 0, -1.333333, -1729.623535, 289.296265)" id="g10">
    <g transform="scale(0.1)" id="g12">
      <path id="path84" style="fill-opacity: 1; fill-rule: nonzero; stroke: none; fill: rgb(255, 255, 255);" d="m 14644.9,2061.46 c 0,11.2 -9.1,20.28 -20.3,20.28 -1.4,0 -2.9,-0.15 -4.3,-0.45 l -142,-30.65 c -9.4,-2.01 -16,-10.27 -16,-19.83 l -15.2,-1345.638 c 0,-58.793 47.7,-106.453 106.4,-106.461 58.8,-0.012 106.5,47.641 106.5,106.418 0,0.012 0,0.019 0,0.043 l -15.1,1376.288 z m -35.8,-555.5 h -110.9 l 4.5,358.48 h 101.9 l 4.5,-358.48 z m -106.2,508.47 101.5,21.89 V 1905.1 h -101.5 v 109.33 z m 97.7,-1376.489 c -25.6,-25.953 -67.5,-26.171 -93.5,-0.48 -0.1,0.16 -0.3,0.32 -0.4,0.48 -12.4,12.379 -19.2,29.231 -19,46.719 l 9.9,780.73 h 112 l 9.8,-780.73 c 0.3,-17.469 -6.5,-34.32 -18.8,-46.719 v 0 0"/>
      <path id="path86" style="fill-opacity: 1; fill-rule: nonzero; stroke: none; fill: rgb(255, 255, 255);" d="m 13211.3,2132.48 c -133,0.11 -240.9,-107.45 -241.3,-240.43 0,-7.53 4.2,-14.46 10.8,-17.97 l 138.1,-72.26 -14.1,-1116.648 c -0.7,-58.793 46.5,-106.992 105.2,-107.652 58.8,-0.661 107,46.46 107.7,105.25 0,0.8 0,1.601 0,2.402 l -14.1,1116.648 138.1,72.26 c 6.7,3.51 10.8,10.44 10.8,17.97 -0.4,132.93 -108.3,240.47 -241.2,240.43 z m 55.5,-626.52 h -110.9 l 3.8,307.83 c 0.5,28.5 24,51.23 52.5,50.76 27.8,-0.45 50.3,-22.92 50.7,-50.76 l 3.9,-307.83 z m -8.5,-868.019 c -25.7,-25.941 -67.5,-26.171 -93.5,-0.5 -0.2,0.168 -0.3,0.329 -0.5,0.5 -12.3,12.391 -19.2,29.231 -18.9,46.719 l 9.8,780.73 h 112 l 9.9,-780.71 c 0.3,-17.481 -6.5,-34.328 -18.8,-46.739 v 0 z m 39.5,1206.689 c -17.5,47.76 -70.3,72.34 -118.1,54.9 -25.5,-9.32 -45.6,-29.41 -54.9,-54.9 l -105.8,55.31 c -4.9,2.52 -7.8,7.77 -7.3,13.26 12.2,110.23 111.5,189.67 221.7,177.44 93.4,-10.35 167.1,-84.07 177.5,-177.44 0.5,-5.49 -2.4,-10.74 -7.3,-13.26 l -105.8,-55.31 v 0"/>
      <path id="path88" style="fill-opacity: 1; fill-rule: nonzero; stroke: none; fill: rgb(255, 255, 255);" d="m 14253.8,1547.01 h -12 c 5.7,35.35 24.9,71.51 46.8,112.29 36.8,68.37 78.3,145.85 78.3,254.55 0,161.11 -153.8,218.53 -297.8,218.53 -144,0 -297.9,-57.31 -297.9,-218.42 0,-108.69 41.6,-186.19 78.4,-254.56 21.9,-40.83 41.1,-76.98 46.8,-112.28 h -12 c -37.2,-0.04 -67.3,-30.17 -67.3,-67.34 V 786.25 c 0.1,-115.102 93.3,-208.379 208.4,-208.512 h 87.2 c 115,0.133 208.3,93.383 208.4,208.453 v 693.539 c 0,37.14 -30.2,67.24 -67.3,67.28 v 0 z m -368.5,131.59 c -34.4,64.17 -73.5,136.86 -73.5,235.38 0,165.04 197,177.95 257.3,177.95 60.4,0 257.3,-12.84 257.3,-177.95 0,-98.49 -39.1,-171.19 -73.5,-235.38 -23.9,-44.55 -46.6,-86.97 -52.2,-131.53 h -35.5 c 4.8,42.39 14.1,84.15 27.7,124.55 4.1,10.45 -1.1,22.2 -11.6,26.25 -10.4,4.04 -22.2,-1.15 -26.2,-11.61 -0.1,-0.21 -0.2,-0.42 -0.2,-0.63 -15.3,-44.92 -25.6,-91.42 -30.5,-138.62 h -35 l 0.5,173.97 c 0,11.21 -9.1,20.29 -20.3,20.29 -11.2,0 -20.3,-9.08 -20.3,-20.29 l -0.5,-173.97 h -35 c -4.9,47.18 -15.2,93.66 -30.5,138.57 -3.8,10.54 -15.4,16 -26,12.2 -10.5,-3.81 -16,-15.44 -12.2,-25.97 0.1,-0.09 0.1,-0.17 0.1,-0.26 13.7,-40.39 23,-82.15 27.7,-124.54 h -35.4 c -5.6,44.65 -28.3,87.04 -52.2,131.59 v 0 z m 395.2,-892.409 c -0.1,-92.66 -75.2,-167.761 -167.8,-167.863 h -87.2 c -92.6,0.102 -167.7,75.203 -167.8,167.863 v 693.539 c 0,14.74 12,26.68 26.7,26.7 h 369.4 c 14.8,-0.02 26.7,-11.99 26.7,-26.76 v -693.479 0"/>
      <path id="path90" style="fill-opacity: 1; fill-rule: nonzero; stroke: none; fill: rgb(255, 255, 255);" d="m 13707,1880.78 c 13.3,30.8 20.6,63.92 21.2,97.51 0,70.27 -42.1,112.28 -112.6,112.28 -70.5,0 -112.6,-41.94 -112.6,-112.28 0.7,-33.58 7.9,-66.71 21.3,-97.51 l -15.1,-1195.608 c 0,-58.793 47.6,-106.453 106.4,-106.461 58.8,-0.012 106.5,47.641 106.5,106.418 0,0.012 0,0.019 0,0.043 L 13707,1880.78 Z m -91.4,169.1 c 48.5,0 72,-23.45 72,-71.7 -0.6,-25.09 -5.6,-49.88 -14.8,-73.24 h -114.4 c -9.1,23.36 -14.2,48.15 -14.8,73.24 0,48.32 23.5,71.76 72,71.76 v -0.06 z m 55.5,-543.99 h -110.9 l 4.5,358.49 h 101.9 l 4.5,-358.49 z m -8.5,-867.949 c -25.7,-25.953 -67.6,-26.16 -93.5,-0.472 -0.1,0.152 -0.3,0.312 -0.5,0.472 -12.3,12.379 -19.2,29.231 -18.9,46.719 l 9.8,780.73 h 112 l 9.9,-780.71 c 0.3,-17.481 -6.5,-34.34 -18.8,-46.739 v 0"/>
    </g>
  </g>
</svg>